HIERARCHY
ROOT root
{
	OFFSET	0	13.1	24.9
	CHANNELS 6  Xposition Yposition Zposition Xrotation Yrotation Zrotation
	JOINT spine_1
	{
		OFFSET	0	9.99999	0
		CHANNELS 3  Xrotation Yrotation Zrotation
		JOINT spine_2
		{
			OFFSET	0	112	-10
			CHANNELS 3  Xrotation Yrotation Zrotation
			JOINT spine_3
			{
				OFFSET	0	206.5	19.3
				CHANNELS 3  Xrotation Yrotation Zrotation
				JOINT spine_4
				{
					OFFSET	0	110.4	14.6
					CHANNELS 3  Xrotation Yrotation Zrotation
					JOINT neck_1
					{
						OFFSET	0	71.8	-50.3
						CHANNELS 3  Xrotation Yrotation Zrotation
						JOINT neck_2
						{
							OFFSET	0	86.2	-25.8
							CHANNELS 3  Xrotation Yrotation Zrotation
							JOINT head_ee
							{
								OFFSET	0	179.8	-8.7
								CHANNELS 3  Xrotation Yrotation Zrotation
								End Site
								{
									OFFSET	1	0	0
								}
							}
						}
					}
					JOINT left_clavicle
					{
						OFFSET	-43.2	22.4	-70.8
						CHANNELS 3  Xrotation Yrotation Zrotation
						JOINT left_shoulder
						{
							OFFSET	-93.9	-5.79999	48.7
							CHANNELS 3  Xrotation Yrotation Zrotation
							JOINT left_elbow
							{
								OFFSET	-291.4	-30.8	15.2
								CHANNELS 3  Xrotation Yrotation Zrotation
								JOINT left_lowarm_twist
								{
									OFFSET	-110.7	-3.89999	13.6
									CHANNELS 3  Xrotation Yrotation Zrotation
									JOINT left_hand
									{
										OFFSET	-110.7	-3.89999	13.6
										CHANNELS 3  Xrotation Yrotation Zrotation
										JOINT left_ee
										{
											OFFSET	-80.8	-5.10001	12.1
											CHANNELS 3  Xrotation Yrotation Zrotation
											End Site
											{
												OFFSET	1	0	0
											}
										}
									}
								}
							}
						}
					}
					JOINT right_clavicle
					{
						OFFSET	43.2	22.4	-70.8
						CHANNELS 3  Xrotation Yrotation Zrotation
						JOINT right_shoulder
						{
							OFFSET	93.9	-5.79999	48.7
							CHANNELS 3  Xrotation Yrotation Zrotation
							JOINT right_elbow
							{
								OFFSET	291.4	-30.8	15.2
								CHANNELS 3  Xrotation Yrotation Zrotation
								JOINT right_lowarm_twist
								{
									OFFSET	110.7	-3.89999	13.6
									CHANNELS 3  Xrotation Yrotation Zrotation
									JOINT right_hand
									{
										OFFSET	110.7	-3.89999	13.6
										CHANNELS 3  Xrotation Yrotation Zrotation
										JOINT right_ee
										{
											OFFSET	80.8	-5.10001	12.1
											CHANNELS 3  Xrotation Yrotation Zrotation
											End Site
											{
												OFFSET	1	0	0
											}
										}
									}
								}
							}
						}
					}
				}
			}
		}
	}
	JOINT left_hip
	{
		OFFSET	-82.8	-127.5	0.300001
		CHANNELS 3  Xrotation Yrotation Zrotation
		JOINT left_knee
		{
			OFFSET	-28.2	-396.7	2.2
			CHANNELS 3  Xrotation Yrotation Zrotation
			JOINT left_ankle
			{
				OFFSET	-11.7	-411.3	35.4
				CHANNELS 3  Xrotation Yrotation Zrotation
				JOINT left_toes
				{
					OFFSET	0	-60	-88.6
					CHANNELS 3  Xrotation Yrotation Zrotation
					JOINT left_foot_ee
					{
						OFFSET	-22.5	-16.5	-42.2
						CHANNELS 3  Xrotation Yrotation Zrotation
						End Site
						{
							OFFSET	1	0	0
						}
					}
				}
			}
		}
	}
	JOINT right_hip
	{
		OFFSET	82.8	-127.5	0.300001
		CHANNELS 3  Xrotation Yrotation Zrotation
		JOINT right_knee
		{
			OFFSET	28.2	-396.7	2.2
			CHANNELS 3  Xrotation Yrotation Zrotation
			JOINT right_ankle
			{
				OFFSET	11.7	-411.3	35.4
				CHANNELS 3  Xrotation Yrotation Zrotation
				JOINT right_toes
				{
					OFFSET	0	-60	-88.6
					CHANNELS 3  Xrotation Yrotation Zrotation
					JOINT right_foot_ee
					{
						OFFSET	22.5	-16.5	-42.2
						CHANNELS 3  Xrotation Yrotation Zrotation
						End Site
						{
							OFFSET	1	0	0
						}
					}
				}
			}
		}
	}
}
MOTION
Frames: 13
Frame Time: 0.02
1169.99855374 723.041 -1758.25937377 -12.6567953564 35.4566926663 -1.32271411616 4.74107 0.503791 3.74415 4.74882 0.264693 3.76857 4.76011 -0.221208 3.77137 4.74046 0.376754 3.75904 -11.9062 7.62463 -11.5021 -11.7556 21.8554 -8.98846 -0.0 0.0 -0.0 0.790525 9.37695 2.48451 -33.0205 -22.1845 60.4736 0.725505 -19.7681 0.126415 5.35001 0.15754 -0.664975 1.39547 -14.0417 3.41253 -0.0 0.0 -0.0 10.9676 8.74778 -21.9659 -10.8946 17.5163 -63.1336 0.848849 22.8063 -0.17121 23.3625 -0.223401 2.95537 -0.936079 -11.7897 1.06982 0.0 0.0 0.0 31.4717 -3.5524 8.3907 -60.3785 -2.241 8.56702 37.4634 21.3253 -4.81762 0.608642 -0.0 -0.0 -0.0 0.0 -0.0 27.2921 -17.1213 10.8623 -22.9101 -0.249738 -3.4835 39.9689 2.19494 4.89298 4.89608 -0.0 -0.0 0.0 0.0 0.0 
1155.17488471 725.383 -1768.07696176 -12.172797026 36.4512142596 -1.42728551203 4.79527 0.593357 3.83929 4.8034 0.348038 3.8692 4.82034 -0.147215 3.88201 4.79962 0.467258 3.85664 -13.3281 7.43365 -11.1962 -13.2656 21.1012 -8.45581 -0.0 0.0 -0.0 0.391855 9.37884 1.79224 -32.3006 -21.1968 62.3822 0.530798 -14.7322 0.0686197 5.81248 0.168228 -0.723085 1.29218 -14.0517 2.71319 -0.0 0.0 -0.0 10.9 10.7089 -21.8097 -9.07336 18.8101 -64.0142 0.892752 23.8568 -0.188598 22.8417 -0.231622 2.88936 -1.04345 -11.014 2.09339 0.0 0.0 0.0 36.4575 -7.64183 9.52518 -61.0839 -2.31816 8.64377 35.6195 21.6787 -4.64064 -0.908831 0.0 0.0 -0.0 0.0 -0.0 25.799 -18.4628 10.6481 -22.1523 -0.263864 -3.36806 39.0052 3.86576 4.82902 3.57577 -0.0 -0.0 0.0 0.0 0.0 
1132.64046329 724.557 -1776.22143387 -13.5853625947 37.7236167633 -0.251199478986 4.79594 0.775267 3.60018 4.80298 0.544763 3.64214 4.83188 0.0779943 3.68178 4.81357 0.658097 3.6234 -12.1517 7.97367 -6.76844 -12.2256 19.4508 -4.22122 -0.0 0.0 -0.0 0.0645818 9.25991 1.20993 -32.6978 -21.1892 64.3685 0.472357 -13.17 0.0545286 6.63996 0.186179 -0.827263 1.41388 -12.7422 4.10787 -0.0 0.0 -0.0 11.5649 11.0351 -23.2932 -8.11229 19.496 -61.6289 0.915597 24.3968 -0.197936 23.0031 -0.229138 2.90983 -0.553479 -8.14603 0.194949 0.0 0.0 0.0 39.8613 -3.96005 7.71264 -58.2348 -2.01242 8.3281 34.7473 21.5223 -4.54698 -2.03045 0.0 0.0 -0.0 0.0 -0.0 24.3209 -19.15 10.5544 -20.2569 -0.292497 -3.07865 39.0411 5.99517 4.86374 2.99483 -0.0 -0.0 0.0 0.0 0.0 
1112.10349263 726.91 -1773.84454649 -15.5635219122 41.6762423595 2.88226289736 4.92221 0.570222 3.38284 4.92851 0.353936 3.41222 4.94427 -0.0757037 3.42968 4.92816 0.466581 3.39867 -12.863 8.49697 -7.28599 -12.9828 20.7234 -4.42766 -0.0 0.0 -0.0 -0.883852 8.13145 -0.596968 -30.9081 -22.3317 67.2204 0.387647 -10.8703 0.0368835 6.0088 0.172623 -0.747778 1.4288 -9.43709 5.64603 -0.0 0.0 -0.0 11.6437 9.45958 -23.4725 -6.49513 19.4573 -61.1649 1.03604 27.1673 -0.250338 21.3894 -0.251375 2.7049 -0.306712 -1.67278 1.33501 0.0 0.0 0.0 40.9056 -7.94405 6.18946 -57.7649 -1.96353 8.27461 33.2982 12.9129 -4.26312 -5.2212 0.0 0.0 -0.0 0.0 -0.0 20.3458 -8.11147 6.5153 -16.5893 -0.320654 -2.51672 33.9323 2.5435 4.33807 2.53064 -0.0 -0.0 0.0 0.0 0.0 
1071.23104553 723.701 -1793.27152214 -17.2211167156 40.9691430074 4.54522240328 5.18444 0.656043 3.1992 5.19002 0.451249 3.23441 5.21034 0.0584447 3.26518 5.19592 0.573116 3.21508 -11.9829 8.51594 -7.34452 -12.0555 20.856 -4.65056 -0.0 0.0 -0.0 -1.79455 8.83462 -2.09903 -33.4546 -23.3031 70.1063 0.374879 -10.5204 0.0345139 5.87411 0.169617 -0.730835 1.88845 -8.06241 9.36811 -0.0 0.0 -0.0 11.7601 9.78077 -23.7348 -4.8009 20.6378 -60.5036 1.19175 30.5547 -0.325531 20.788 -0.258184 2.62839 0.385586 3.62102 -1.06174 0.0 0.0 0.0 41.3567 -7.08623 2.89976 -53.7393 -1.56319 7.80061 32.4205 14.832 -4.1921 -7.63569 0.0 0.0 -0.0 0.0 -0.0 17.1712 -2.72573 4.52845 -11.5164 -0.300265 -1.73891 30.3308 7.2416 4.03149 -1.7304 0.0 0.0 0.0 0.0 0.0 
1046.83250705 719.413 -1799.18298455 -17.7036269252 42.1849844394 5.20089060657 5.34746 0.520379 3.09059 5.35271 0.32276 3.1174 5.36521 -0.046729 3.1337 5.35179 0.448525 3.10182 -10.4453 9.0052 -5.03655 -10.5162 20.3344 -2.56288 -0.0 0.0 -0.0 -2.66097 8.44593 -3.69541 -33.1896 -23.1671 73.2396 0.416036 -11.6454 0.042426 6.22252 0.177312 -0.774676 1.72282 -5.82319 9.19026 -0.0 0.0 -0.0 11.6476 9.43642 -23.4811 -4.50313 20.83 -60.2781 1.31515 33.0822 -0.390608 20.3346 -0.262787 2.57066 0.55755 6.63985 -0.946162 0.0 0.0 0.0 42.7431 -15.7867 5.966 -32.6074 -0.064606 4.93678 19.2025 17.7153 -2.67622 -14.6466 0.0 0.0 -0.0 0.0 -0.0 14.1119 -2.68911 4.55672 -7.4153 -0.233531 -1.11328 29.8959 9.00541 4.01574 -3.45753 0.0 0.0 0.0 0.0 0.0 
1028.77742127 717.669 -1804.21132303 -19.4802423581 44.2713374038 6.80791419529 5.55211 0.269766 3.03469 5.55723 0.0762056 3.0457 5.55614 -0.27334 3.03437 5.54336 0.209085 3.03947 -9.55061 9.43385 -5.14017 -9.58291 21.2205 -2.72748 -0.0 0.0 -0.0 -2.93785 7.25323 -4.40671 -32.8254 -23.6182 75.7879 0.307016 -8.64786 0.0232137 5.25634 0.155318 -0.653216 1.85581 -3.37715 11.123 -0.0 0.0 -0.0 11.522 8.96185 -23.1975 -3.98949 20.8213 -60.2305 1.39539 34.6518 -0.435328 19.7274 -0.268234 2.49329 0.781386 9.12839 -1.39886 0.0 0.0 0.0 42.8007 -18.806 6.97903 -29.2894 0.0706253 4.44563 14.4545 19.0077 -2.06175 -16.2388 0.0 0.0 -0.0 0.0 -0.0 13.5883 -0.106558 4.67087 -6.48837 -0.212253 -0.972622 26.5065 7.57923 3.61133 -5.25107 0.0 0.0 0.0 0.0 0.0 
1005.34605925 713.786 -1811.22978045 -20.336993458 45.5322464394 7.54582287142 5.72746 0.31977 2.89459 5.73211 0.135011 2.90906 5.73405 -0.190135 2.90598 5.72237 0.270998 2.89956 -8.80933 9.16314 -7.61112 -8.70532 22.4226 -5.40063 -0.0 0.0 -0.0 -3.08802 6.35441 -4.84508 -32.3238 -24.2671 77.2099 0.322 -9.06305 0.0255203 4.78109 0.143748 -0.593609 1.76433 0.784792 12.1848 -0.0 0.0 -0.0 11.7262 8.6918 -23.6513 -3.64168 20.2223 -58.3982 1.45836 35.8433 -0.47167 18.8234 -0.274825 2.37801 0.50991 9.95321 0.786453 0.0 0.0 0.0 43.2965 -22.0443 7.38625 -24.992 0.203085 3.79956 11.746 21.7264 -1.70963 -16.5409 0.0 0.0 -0.0 0.0 -0.0 11.8557 3.08173 4.89768 -5.92417 -0.198188 -0.887182 31.1649 6.91561 4.11494 -6.99845 0.0 0.0 0.0 0.0 0.0 
984.756601476 711.075 -1821.44439507 -21.0777822541 46.3524831648 8.15961998199 5.87276 0.263023 3.01356 5.87781 0.070819 3.02417 5.87604 -0.25939 3.01387 5.86343 0.219627 3.01703 -9.45578 9.50759 -5.92094 -9.46195 21.89 -3.49878 -0.0 0.0 -0.0 -3.22896 6.0204 -5.16568 -32.9304 -23.8847 77.2992 0.332633 -9.35713 0.0272222 4.53829 0.137647 -0.563194 1.7435 3.60715 13.148 -0.0 0.0 -0.0 11.3987 8.29873 -22.9171 -3.43081 20.4378 -59.6412 1.5456 37.4367 -0.523737 17.5372 -0.281066 2.21386 0.75945 12.1488 0.0455552 0.0 0.0 0.0 43.5646 -25.6499 7.40946 -19.3192 0.303118 2.93517 5.8085 24.5119 -0.872213 -19.594 0.0 0.0 -0.0 0.0 -0.0 9.46908 4.12206 5.139 -4.79476 -0.167506 -0.716574 33.1494 7.05169 4.3226 -8.23191 0.0 0.0 0.0 0.0 0.0 
980.485363479 711.075 -1816.60635548 -21.3509633311 47.0160499209 8.53507612867 5.87276 0.263023 3.01356 5.87781 0.070819 3.02417 5.87604 -0.25939 3.01387 5.86343 0.219627 3.01703 -9.45578 9.50759 -5.92094 -9.46195 21.89 -3.49878 -0.0 0.0 -0.0 -3.22896 6.0204 -5.16568 -32.9304 -23.8847 77.2992 0.332633 -9.35713 0.0272222 4.53829 0.137647 -0.563194 1.7435 3.60715 13.148 -0.0 0.0 -0.0 11.3987 8.29873 -22.9171 -3.43081 20.4378 -59.6412 1.5456 37.4367 -0.523737 17.5372 -0.281066 2.21386 0.75945 12.1488 0.0455552 0.0 0.0 0.0 43.5646 -25.6499 7.40946 -19.3192 0.303118 2.93517 5.8085 24.5119 -0.872213 -19.594 0.0 0.0 -0.0 0.0 -0.0 9.46908 4.12206 5.139 -4.79476 -0.167506 -0.716574 33.1494 7.05169 4.3226 -8.23191 0.0 0.0 0.0 0.0 0.0 
975.102337332 711.075 -1810.33201319 -21.715434747 47.8642246364 9.02988295376 5.87276 0.263023 3.01356 5.87781 0.070819 3.02417 5.87604 -0.25939 3.01387 5.86343 0.219627 3.01703 -9.45578 9.50759 -5.92094 -9.46195 21.89 -3.49878 -0.0 0.0 -0.0 -3.22896 6.0204 -5.16568 -32.9304 -23.8847 77.2992 0.332633 -9.35713 0.0272222 4.53829 0.137647 -0.563194 1.7435 3.60715 13.148 -0.0 0.0 -0.0 11.3987 8.29873 -22.9171 -3.43081 20.4378 -59.6412 1.5456 37.4367 -0.523737 17.5372 -0.281066 2.21386 0.75945 12.1488 0.0455552 0.0 0.0 0.0 43.5646 -25.6499 7.40946 -19.3192 0.303118 2.93517 5.8085 24.5119 -0.872213 -19.594 0.0 0.0 -0.0 0.0 -0.0 9.46908 4.12206 5.139 -4.79476 -0.167506 -0.716574 33.1494 7.05169 4.3226 -8.23191 0.0 0.0 0.0 0.0 0.0 
971.431087678 711.075 -1805.93437128 -21.9780125403 48.4506818763 9.38234032185 5.87276 0.263023 3.01356 5.87781 0.070819 3.02417 5.87604 -0.25939 3.01387 5.86343 0.219627 3.01703 -9.45578 9.50759 -5.92094 -9.46195 21.89 -3.49878 -0.0 0.0 -0.0 -3.22896 6.0204 -5.16568 -32.9304 -23.8847 77.2992 0.332633 -9.35713 0.0272222 4.53829 0.137647 -0.563194 1.7435 3.60715 13.148 -0.0 0.0 -0.0 11.3987 8.29873 -22.9171 -3.43081 20.4378 -59.6412 1.5456 37.4367 -0.523737 17.5372 -0.281066 2.21386 0.75945 12.1488 0.0455552 0.0 0.0 0.0 43.5646 -25.6499 7.40946 -19.3192 0.303118 2.93517 5.8085 24.5119 -0.872213 -19.594 0.0 0.0 -0.0 0.0 -0.0 9.46908 4.12206 5.139 -4.79476 -0.167506 -0.716574 33.1494 7.05169 4.3226 -8.23191 0.0 0.0 0.0 0.0 0.0 
967.489354938 711.075 -1801.10064187 -22.2736632276 49.087944516 9.77545366268 5.87276 0.263023 3.01356 5.87781 0.070819 3.02417 5.87604 -0.25939 3.01387 5.86343 0.219627 3.01703 -9.45578 9.50759 -5.92094 -9.46195 21.89 -3.49878 -0.0 0.0 -0.0 -3.22896 6.0204 -5.16568 -32.9304 -23.8847 77.2992 0.332633 -9.35713 0.0272222 4.53829 0.137647 -0.563194 1.7435 3.60715 13.148 -0.0 0.0 -0.0 11.3987 8.29873 -22.9171 -3.43081 20.4378 -59.6412 1.5456 37.4367 -0.523737 17.5372 -0.281066 2.21386 0.75945 12.1488 0.0455552 0.0 0.0 0.0 43.5646 -25.6499 7.40946 -19.3192 0.303118 2.93517 5.8085 24.5119 -0.872213 -19.594 0.0 0.0 -0.0 0.0 -0.0 9.46908 4.12206 5.139 -4.79476 -0.167506 -0.716574 33.1494 7.05169 4.3226 -8.23191 0.0 0.0 0.0 0.0 0.0 
